<mxfile host="app.diagrams.net" modified="2021-01-18T09:03:24.734Z" agent="5.0 (Windows NT 10.0; Win64; x64) AppleWebKit/537.36 (KHTML, like Gecko) Chrome/87.0.4280.141 Safari/537.36" etag="jTRHoKOehb_oaF8eSEg8" version="14.2.4" type="github">
  <diagram id="-a6WbMNMecBKhR_LUQmN" name="Page-1">
    <mxGraphModel dx="1419" dy="762" grid="1" gridSize="10" guides="1" tooltips="1" connect="1" arrows="1" fold="1" page="1" pageScale="1" pageWidth="827" pageHeight="1169" math="0" shadow="0">
      <root>
        <mxCell id="0" />
        <mxCell id="1" parent="0" />
        <mxCell id="hpvgZ9Z2Bp3K3JRqvIrx-18" style="edgeStyle=orthogonalEdgeStyle;rounded=0;orthogonalLoop=1;jettySize=auto;html=1;" edge="1" parent="1" source="hpvgZ9Z2Bp3K3JRqvIrx-1" target="hpvgZ9Z2Bp3K3JRqvIrx-9">
          <mxGeometry relative="1" as="geometry">
            <Array as="points">
              <mxPoint x="390" y="280" />
              <mxPoint x="240" y="280" />
            </Array>
          </mxGeometry>
        </mxCell>
        <mxCell id="hpvgZ9Z2Bp3K3JRqvIrx-19" style="edgeStyle=orthogonalEdgeStyle;rounded=0;orthogonalLoop=1;jettySize=auto;html=1;exitX=0.5;exitY=1;exitDx=0;exitDy=0;" edge="1" parent="1" source="hpvgZ9Z2Bp3K3JRqvIrx-1" target="hpvgZ9Z2Bp3K3JRqvIrx-10">
          <mxGeometry relative="1" as="geometry" />
        </mxCell>
        <mxCell id="hpvgZ9Z2Bp3K3JRqvIrx-1" value="RETFul&lt;br&gt;Controller" style="rounded=1;whiteSpace=wrap;html=1;fillColor=#dae8fc;strokeColor=#6c8ebf;" vertex="1" parent="1">
          <mxGeometry x="330" y="180" width="120" height="60" as="geometry" />
        </mxCell>
        <mxCell id="hpvgZ9Z2Bp3K3JRqvIrx-3" value="ingress-controller&lt;br&gt;Pod A" style="ellipse;whiteSpace=wrap;html=1;aspect=fixed;fillColor=#e1d5e7;strokeColor=#9673a6;" vertex="1" parent="1">
          <mxGeometry x="320" y="480" width="80" height="80" as="geometry" />
        </mxCell>
        <mxCell id="hpvgZ9Z2Bp3K3JRqvIrx-8" style="edgeStyle=orthogonalEdgeStyle;rounded=0;orthogonalLoop=1;jettySize=auto;html=1;" edge="1" parent="1" source="hpvgZ9Z2Bp3K3JRqvIrx-5" target="hpvgZ9Z2Bp3K3JRqvIrx-3">
          <mxGeometry relative="1" as="geometry" />
        </mxCell>
        <mxCell id="hpvgZ9Z2Bp3K3JRqvIrx-5" value="&lt;b&gt;&amp;nbsp;defalut&lt;br&gt;ingress A&lt;/b&gt;" style="shape=process;whiteSpace=wrap;html=1;backgroundOutline=1;fillColor=#f8cecc;strokeColor=#b85450;" vertex="1" parent="1">
          <mxGeometry x="73" y="490" width="120" height="60" as="geometry" />
        </mxCell>
        <mxCell id="hpvgZ9Z2Bp3K3JRqvIrx-7" style="edgeStyle=orthogonalEdgeStyle;rounded=0;orthogonalLoop=1;jettySize=auto;html=1;entryX=0.5;entryY=1;entryDx=0;entryDy=0;" edge="1" parent="1" source="hpvgZ9Z2Bp3K3JRqvIrx-6" target="hpvgZ9Z2Bp3K3JRqvIrx-3">
          <mxGeometry relative="1" as="geometry" />
        </mxCell>
        <mxCell id="hpvgZ9Z2Bp3K3JRqvIrx-6" value="&lt;b&gt;灰度ingress&lt;/b&gt;" style="shape=process;whiteSpace=wrap;html=1;backgroundOutline=1;fillColor=#fff2cc;strokeColor=#d6b656;" vertex="1" parent="1">
          <mxGeometry x="73" y="620" width="120" height="60" as="geometry" />
        </mxCell>
        <mxCell id="hpvgZ9Z2Bp3K3JRqvIrx-32" style="edgeStyle=orthogonalEdgeStyle;rounded=0;orthogonalLoop=1;jettySize=auto;html=1;exitX=0.5;exitY=1;exitDx=0;exitDy=0;entryX=0.5;entryY=0;entryDx=0;entryDy=0;strokeColor=#000000;" edge="1" parent="1" source="hpvgZ9Z2Bp3K3JRqvIrx-9" target="hpvgZ9Z2Bp3K3JRqvIrx-5">
          <mxGeometry relative="1" as="geometry" />
        </mxCell>
        <mxCell id="hpvgZ9Z2Bp3K3JRqvIrx-33" style="edgeStyle=orthogonalEdgeStyle;rounded=0;orthogonalLoop=1;jettySize=auto;html=1;exitX=0.5;exitY=1;exitDx=0;exitDy=0;entryX=0.567;entryY=0.033;entryDx=0;entryDy=0;entryPerimeter=0;strokeColor=#000000;" edge="1" parent="1" source="hpvgZ9Z2Bp3K3JRqvIrx-9" target="hpvgZ9Z2Bp3K3JRqvIrx-15">
          <mxGeometry relative="1" as="geometry" />
        </mxCell>
        <mxCell id="hpvgZ9Z2Bp3K3JRqvIrx-9" value="lbrule crd&lt;br&gt;路由规格crd" style="ellipse;whiteSpace=wrap;html=1;fillColor=#f8cecc;strokeColor=#b85450;" vertex="1" parent="1">
          <mxGeometry x="180" y="320" width="120" height="80" as="geometry" />
        </mxCell>
        <mxCell id="hpvgZ9Z2Bp3K3JRqvIrx-34" style="edgeStyle=orthogonalEdgeStyle;rounded=0;orthogonalLoop=1;jettySize=auto;html=1;exitX=0;exitY=0.5;exitDx=0;exitDy=0;strokeColor=#000000;" edge="1" parent="1" source="hpvgZ9Z2Bp3K3JRqvIrx-10" target="hpvgZ9Z2Bp3K3JRqvIrx-3">
          <mxGeometry relative="1" as="geometry" />
        </mxCell>
        <mxCell id="hpvgZ9Z2Bp3K3JRqvIrx-35" style="edgeStyle=orthogonalEdgeStyle;rounded=0;orthogonalLoop=1;jettySize=auto;html=1;exitX=1;exitY=0.5;exitDx=0;exitDy=0;entryX=0.5;entryY=0;entryDx=0;entryDy=0;strokeColor=#000000;" edge="1" parent="1" source="hpvgZ9Z2Bp3K3JRqvIrx-10" target="hpvgZ9Z2Bp3K3JRqvIrx-13">
          <mxGeometry relative="1" as="geometry" />
        </mxCell>
        <mxCell id="hpvgZ9Z2Bp3K3JRqvIrx-10" value="lb crd&lt;br&gt;负载均衡器crd" style="ellipse;whiteSpace=wrap;html=1;fillColor=#e1d5e7;strokeColor=#9673a6;" vertex="1" parent="1">
          <mxGeometry x="520" y="320" width="120" height="80" as="geometry" />
        </mxCell>
        <mxCell id="hpvgZ9Z2Bp3K3JRqvIrx-20" style="edgeStyle=orthogonalEdgeStyle;rounded=0;orthogonalLoop=1;jettySize=auto;html=1;" edge="1" parent="1" source="hpvgZ9Z2Bp3K3JRqvIrx-11" target="hpvgZ9Z2Bp3K3JRqvIrx-1">
          <mxGeometry relative="1" as="geometry" />
        </mxCell>
        <mxCell id="hpvgZ9Z2Bp3K3JRqvIrx-11" value="Actor" style="shape=umlActor;verticalLabelPosition=bottom;verticalAlign=top;html=1;outlineConnect=0;" vertex="1" parent="1">
          <mxGeometry x="375" y="50" width="30" height="60" as="geometry" />
        </mxCell>
        <mxCell id="hpvgZ9Z2Bp3K3JRqvIrx-13" value="ingress-controller&lt;br&gt;Pod B" style="ellipse;whiteSpace=wrap;html=1;aspect=fixed;fillColor=#e1d5e7;strokeColor=#9673a6;" vertex="1" parent="1">
          <mxGeometry x="627" y="480" width="80" height="80" as="geometry" />
        </mxCell>
        <mxCell id="hpvgZ9Z2Bp3K3JRqvIrx-14" style="edgeStyle=orthogonalEdgeStyle;rounded=0;orthogonalLoop=1;jettySize=auto;html=1;" edge="1" parent="1" source="hpvgZ9Z2Bp3K3JRqvIrx-15" target="hpvgZ9Z2Bp3K3JRqvIrx-13">
          <mxGeometry relative="1" as="geometry" />
        </mxCell>
        <mxCell id="hpvgZ9Z2Bp3K3JRqvIrx-15" value="&lt;b&gt;&amp;nbsp;defalut&lt;br&gt;ingress B&lt;/b&gt;" style="shape=process;whiteSpace=wrap;html=1;backgroundOutline=1;fillColor=#f8cecc;strokeColor=#b85450;" vertex="1" parent="1">
          <mxGeometry x="450" y="490" width="120" height="60" as="geometry" />
        </mxCell>
      </root>
    </mxGraphModel>
  </diagram>
</mxfile>
